HIERARCHY
ROOT Hips
{
	OFFSET 0.000000 87.230942 0.000000
	CHANNELS 6 Xposition Yposition Zposition Xrotation Yrotation Zrotation
	JOINT Pelvis
	{
		OFFSET 0.000000 0.000000 0.000000
		CHANNELS 3 Xrotation Yrotation Zrotation
		JOINT LeftUpLeg
		{
			OFFSET 12.017000 -9.376404 -2.439400
			CHANNELS 3 Xrotation Yrotation Zrotation
			JOINT LeftLeg
			{
				OFFSET -0.007312 -32.846973 2.110600
				CHANNELS 3 Xrotation Yrotation Zrotation
				JOINT LeftFoot
				{
					OFFSET 0.007312 -32.065170 -0.570400
					CHANNELS 3 Xrotation Yrotation Zrotation
					JOINT LeftToeBase
					{
						OFFSET 0.728300 -11.045900 13.180700
						CHANNELS 3 Xrotation Yrotation Zrotation
						End Site
						{
							OFFSET 0.000000 17.212589 0.000000
						}
					}
				}
				JOINT LeftPantLeg
				{
					OFFSET 0.002788 -16.709013 -3.143600
					CHANNELS 3 Xrotation Yrotation Zrotation
					End Site
					{
						OFFSET -0.605125 24.528742 0.000000
					}
				}
			}
			JOINT Left_Butt
			{
				OFFSET -6.630234 1.326584 -3.183700
				CHANNELS 3 Xrotation Yrotation Zrotation
				End Site
				{
					OFFSET -0.498041 20.188049 0.000000
				}
			}
		}
		JOINT RightUpLeg
		{
			OFFSET -11.717000 -9.376404 -2.439400
			CHANNELS 3 Xrotation Yrotation Zrotation
			JOINT RightLeg
			{
				OFFSET -0.003241 -32.846912 2.110600
				CHANNELS 3 Xrotation Yrotation Zrotation
				JOINT RightFoot
				{
					OFFSET 0.003241 -32.065136 -0.570500
					CHANNELS 3 Xrotation Yrotation Zrotation
					JOINT RightToeBase
					{
						OFFSET -0.728300 -11.045901 13.180700
						CHANNELS 3 Xrotation Yrotation Zrotation
						End Site
						{
							OFFSET 0.000000 17.212593 0.000000
						}
					}
				}
				JOINT RightPantLeg
				{
					OFFSET 0.008142 -16.708982 -3.143700
					CHANNELS 3 Xrotation Yrotation Zrotation
					End Site
					{
						OFFSET 0.605088 24.528715 0.000000
					}
				}
			}
			JOINT Right_Butt
			{
				OFFSET 6.630732 1.326584 -3.183700
				CHANNELS 3 Xrotation Yrotation Zrotation
				End Site
				{
					OFFSET 0.498015 20.188240 0.000000
				}
			}
		}
	}
	JOINT Spine
	{
		OFFSET -0.062400 7.848404 3.918300
		CHANNELS 3 Xrotation Yrotation Zrotation
		JOINT Spine1
		{
			OFFSET -0.072800 11.422302 0.713400
			CHANNELS 3 Xrotation Yrotation Zrotation
			JOINT Spine2
			{
				OFFSET -0.083200 13.054001 -1.931600
				CHANNELS 3 Xrotation Yrotation Zrotation
				JOINT Neck
				{
					OFFSET -0.092200 14.121796 -5.138800
					CHANNELS 3 Xrotation Yrotation Zrotation
					JOINT Head
					{
						OFFSET 0.000200 10.447403 -0.842000
						CHANNELS 3 Xrotation Yrotation Zrotation
						JOINT Visor
						{
							OFFSET 0.457100 25.671204 16.550400
							CHANNELS 3 Xrotation Yrotation Zrotation
							End Site
							{
								OFFSET 0.000000 26.061493 0.000000
							}
						}
						JOINT HairMidA
						{
							OFFSET 0.459400 31.585403 8.437400
							CHANNELS 3 Xrotation Yrotation Zrotation
							End Site
							{
								OFFSET 0.000000 26.061493 0.000000
							}
						}
						JOINT HairMidB
						{
							OFFSET 0.464000 33.309204 -8.389700
							CHANNELS 3 Xrotation Yrotation Zrotation
							End Site
							{
								OFFSET 0.000000 26.061493 0.000000
							}
						}
						JOINT HairMidC
						{
							OFFSET 0.466600 27.991196 -17.375099
							CHANNELS 3 Xrotation Yrotation Zrotation
							End Site
							{
								OFFSET 0.000000 26.061493 0.000000
							}
						}
						JOINT HairMidD
						{
							OFFSET 0.467700 17.888092 -21.169500
							CHANNELS 3 Xrotation Yrotation Zrotation
							End Site
							{
								OFFSET 0.000000 26.061493 0.000000
							}
						}
						JOINT HairMidE
						{
							OFFSET 5.325700 3.514603 -14.369699
							CHANNELS 3 Xrotation Yrotation Zrotation
							End Site
							{
								OFFSET 0.000000 26.061493 0.000000
							}
						}
						JOINT HairMidF
						{
							OFFSET -4.394100 3.514603 -14.372400
							CHANNELS 3 Xrotation Yrotation Zrotation
							End Site
							{
								OFFSET 0.000000 26.061493 0.000000
							}
						}
						JOINT HairLeftA
						{
							OFFSET 15.319900 25.746506 2.623300
							CHANNELS 3 Xrotation Yrotation Zrotation
							End Site
							{
								OFFSET 0.000000 26.061493 0.000000
							}
						}
						JOINT HairLeftB
						{
							OFFSET 12.619500 29.289398 -8.731499
							CHANNELS 3 Xrotation Yrotation Zrotation
							End Site
							{
								OFFSET 0.000000 26.061493 0.000000
							}
						}
						JOINT HairLeftC
						{
							OFFSET 15.714800 15.959900 2.909800
							CHANNELS 3 Xrotation Yrotation Zrotation
							End Site
							{
								OFFSET 0.000000 26.061493 0.000000
							}
						}
						JOINT HairLeftD
						{
							OFFSET 16.101700 18.437408 -7.553200
							CHANNELS 3 Xrotation Yrotation Zrotation
							End Site
							{
								OFFSET 0.000000 26.061493 0.000000
							}
						}
						JOINT HairLeftE
						{
							OFFSET 9.731900 17.915009 -18.316799
							CHANNELS 3 Xrotation Yrotation Zrotation
							End Site
							{
								OFFSET 0.000000 26.061493 0.000000
							}
						}
						JOINT HairLeftF
						{
							OFFSET 11.204300 4.953598 -9.668100
							CHANNELS 3 Xrotation Yrotation Zrotation
							End Site
							{
								OFFSET 0.000000 26.061493 0.000000
							}
						}
						JOINT HairRightA
						{
							OFFSET -14.397900 25.746307 2.615100
							CHANNELS 3 Xrotation Yrotation Zrotation
							End Site
							{
								OFFSET 0.000000 26.061493 0.000000
							}
						}
						JOINT HairRightB
						{
							OFFSET -11.691200 29.289200 -8.738199
							CHANNELS 3 Xrotation Yrotation Zrotation
							End Site
							{
								OFFSET 0.000000 26.061493 0.000000
							}
						}
						JOINT HairRightC
						{
							OFFSET -14.792900 15.959702 2.901400
							CHANNELS 3 Xrotation Yrotation Zrotation
							End Site
							{
								OFFSET 0.000000 26.061493 0.000000
							}
						}
						JOINT HairRightD
						{
							OFFSET -15.174000 18.437195 -7.561900
							CHANNELS 3 Xrotation Yrotation Zrotation
							End Site
							{
								OFFSET 0.000000 26.061493 0.000000
							}
						}
						JOINT HairRightE
						{
							OFFSET -8.798200 17.914902 -18.322001
							CHANNELS 3 Xrotation Yrotation Zrotation
							End Site
							{
								OFFSET 0.000000 26.061493 0.000000
							}
						}
						JOINT HairRightF
						{
							OFFSET -10.275200 4.953506 -9.674099
							CHANNELS 3 Xrotation Yrotation Zrotation
							End Site
							{
								OFFSET 0.000000 26.061493 0.000000
							}
						}
					}
				}
				JOINT LeftShoulder
				{
					OFFSET 5.133500 7.341202 -1.867600
					CHANNELS 3 Xrotation Yrotation Zrotation
					JOINT LeftArm
					{
						OFFSET 8.072663 0.936867 -2.176600
						CHANNELS 3 Xrotation Yrotation Zrotation
						JOINT LeftForeArm
						{
							OFFSET 31.271999 0.000000 0.000000
							CHANNELS 3 Xrotation Yrotation Zrotation
							JOINT LeftHand
							{
								OFFSET 31.771030 0.000000 0.000000
								CHANNELS 3 Xrotation Yrotation Zrotation
								JOINT LeftHandThumb1
								{
									OFFSET 2.886520 -2.557846 4.416640
									CHANNELS 3 Xrotation Yrotation Zrotation
									JOINT LeftHandThumb2
									{
										OFFSET 2.371025 -1.368912 1.368911
										CHANNELS 3 Xrotation Yrotation Zrotation
										JOINT LeftHandThumb3
										{
											OFFSET 2.243378 -1.295212 1.295213
											CHANNELS 3 Xrotation Yrotation Zrotation
											End Site
											{
												OFFSET -0.332611 2.876945 0.020015
											}
										}
									}
								}
								JOINT LeftHandIndex1
								{
									OFFSET 8.568985 -0.641945 3.119977
									CHANNELS 3 Xrotation Yrotation Zrotation
									JOINT LeftHandIndex2
									{
										OFFSET 3.348503 0.000000 0.000000
										CHANNELS 3 Xrotation Yrotation Zrotation
										JOINT LeftHandIndex3
										{
											OFFSET 3.314552 0.000000 0.000000
											CHANNELS 3 Xrotation Yrotation Zrotation
											End Site
											{
												OFFSET -1.032898 3.075485 0.678796
											}
										}
									}
								}
								JOINT LeftHandMiddle1
								{
									OFFSET 8.124603 0.000000 0.000000
									CHANNELS 3 Xrotation Yrotation Zrotation
									JOINT LeftHandMiddle2
									{
										OFFSET 4.166275 0.000000 0.000000
										CHANNELS 3 Xrotation Yrotation Zrotation
										JOINT LeftHandMiddle3
										{
											OFFSET 3.018135 0.000000 0.000000
											CHANNELS 3 Xrotation Yrotation Zrotation
											End Site
											{
												OFFSET -1.032700 2.767982 0.617226
											}
										}
									}
								}
								JOINT LeftHandRing1
								{
									OFFSET 8.571686 -0.031357 -2.884048
									CHANNELS 3 Xrotation Yrotation Zrotation
									JOINT LeftHandRing2
									{
										OFFSET 3.671181 0.000000 0.000000
										CHANNELS 3 Xrotation Yrotation Zrotation
										JOINT LeftHandRing3
										{
											OFFSET 2.728851 0.000000 0.000000
											CHANNELS 3 Xrotation Yrotation Zrotation
											End Site
											{
												OFFSET -0.815796 2.539223 0.577389
											}
										}
									}
								}
								JOINT LeftHandPinky1
								{
									OFFSET 7.854515 -0.675232 -5.213020
									CHANNELS 3 Xrotation Yrotation Zrotation
									JOINT LeftHandPinky2
									{
										OFFSET 3.068596 0.000000 0.000000
										CHANNELS 3 Xrotation Yrotation Zrotation
										JOINT LeftHandPinky3
										{
											OFFSET 2.396042 0.000000 0.000000
											CHANNELS 3 Xrotation Yrotation Zrotation
											End Site
											{
												OFFSET -0.524597 2.267998 0.567429
											}
										}
									}
								}
							}
							JOINT LeftSleeve
							{
								OFFSET 19.684509 -0.200119 0.476146
								CHANNELS 3 Xrotation Yrotation Zrotation
								End Site
								{
									OFFSET -0.031017 25.731133 -0.002868
								}
							}
						}
					}
				}
				JOINT RightShoulder
				{
					OFFSET -4.395900 7.341202 -1.870200
					CHANNELS 3 Xrotation Yrotation Zrotation
					JOINT RightArm
					{
						OFFSET -8.071453 0.936867 -2.181100
						CHANNELS 3 Xrotation Yrotation Zrotation
						JOINT RightForeArm
						{
							OFFSET -31.272011 0.000000 0.000000
							CHANNELS 3 Xrotation Yrotation Zrotation
							JOINT RightHand
							{
								OFFSET -31.771019 0.000000 0.000000
								CHANNELS 3 Xrotation Yrotation Zrotation
								JOINT RightHandThumb1
								{
									OFFSET -2.886520 -2.557808 4.416626
									CHANNELS 3 Xrotation Yrotation Zrotation
									JOINT RightHandThumb2
									{
										OFFSET -2.371056 -1.368927 1.368928
										CHANNELS 3 Xrotation Yrotation Zrotation
										JOINT RightHandThumb3
										{
											OFFSET -2.243362 -1.295204 1.295206
											CHANNELS 3 Xrotation Yrotation Zrotation
											End Site
											{
												OFFSET 0.332642 2.876938 0.020047
											}
										}
									}
								}
								JOINT RightHandIndex1
								{
									OFFSET -8.568993 -0.641953 3.120017
									CHANNELS 3 Xrotation Yrotation Zrotation
									JOINT RightHandIndex2
									{
										OFFSET -3.348518 0.000000 0.000000
										CHANNELS 3 Xrotation Yrotation Zrotation
										JOINT RightHandIndex3
										{
											OFFSET -3.314552 0.000000 0.000000
											CHANNELS 3 Xrotation Yrotation Zrotation
											End Site
											{
												OFFSET 1.032898 3.075478 0.678804
											}
										}
									}
								}
								JOINT RightHandMiddle1
								{
									OFFSET -8.124588 0.000000 0.000000
									CHANNELS 3 Xrotation Yrotation Zrotation
									JOINT RightHandMiddle2
									{
										OFFSET -4.166275 0.000000 0.000000
										CHANNELS 3 Xrotation Yrotation Zrotation
										JOINT RightHandMiddle3
										{
											OFFSET -3.018097 0.000000 0.000000
											CHANNELS 3 Xrotation Yrotation Zrotation
											End Site
											{
												OFFSET 1.032700 2.767937 0.617197
											}
										}
									}
								}
								JOINT RightHandRing1
								{
									OFFSET -8.571747 -0.031349 -2.884061
									CHANNELS 3 Xrotation Yrotation Zrotation
									JOINT RightHandRing2
									{
										OFFSET -3.671204 0.000000 0.000000
										CHANNELS 3 Xrotation Yrotation Zrotation
										JOINT RightHandRing3
										{
											OFFSET -2.728874 0.000000 0.000000
											CHANNELS 3 Xrotation Yrotation Zrotation
											End Site
											{
												OFFSET 0.815804 2.539261 0.577413
											}
										}
									}
								}
								JOINT RightHandPinky1
								{
									OFFSET -7.854561 -0.675247 -5.212970
									CHANNELS 3 Xrotation Yrotation Zrotation
									JOINT RightHandPinky2
									{
										OFFSET -3.068550 0.000000 0.000000
										CHANNELS 3 Xrotation Yrotation Zrotation
										JOINT RightHandPinky3
										{
											OFFSET -2.395981 0.000000 0.000000
											CHANNELS 3 Xrotation Yrotation Zrotation
											End Site
											{
												OFFSET 0.524605 2.267952 0.567413
											}
										}
									}
								}
							}
							JOINT RightSleeve
							{
								OFFSET -19.684753 -0.200165 0.476065
								CHANNELS 3 Xrotation Yrotation Zrotation
								End Site
								{
									OFFSET 0.031342 25.731255 -0.002917
								}
							}
						}
					}
				}
				JOINT Hood
				{
					OFFSET 0.369700 14.447800 -5.317800
					CHANNELS 3 Xrotation Yrotation Zrotation
					JOINT Hood1
					{
						OFFSET 0.001700 -5.553802 -5.895100
						CHANNELS 3 Xrotation Yrotation Zrotation
						JOINT Hood2
						{
							OFFSET -0.000200 -8.380501 0.763600
							CHANNELS 3 Xrotation Yrotation Zrotation
							End Site
							{
								OFFSET 0.000000 8.415215 0.000000
							}
						}
					}
				}
				JOINT Left_Breast
				{
					OFFSET 5.682500 3.120102 3.188800
					CHANNELS 3 Xrotation Yrotation Zrotation
					End Site
					{
						OFFSET 0.000000 10.528564 0.000000
					}
				}
				JOINT Right_Breast
				{
					OFFSET -4.947600 3.120102 3.185900
					CHANNELS 3 Xrotation Yrotation Zrotation
					End Site
					{
						OFFSET 0.000000 10.528564 0.000000
					}
				}
				JOINT Whistle
				{
					OFFSET 0.368200 11.471298 0.095400
					CHANNELS 3 Xrotation Yrotation Zrotation
					JOINT Whistle1
					{
						OFFSET -0.002000 -6.349899 7.479800
						CHANNELS 3 Xrotation Yrotation Zrotation
						JOINT Whistle2
						{
							OFFSET -0.001300 -8.217598 4.717600
							CHANNELS 3 Xrotation Yrotation Zrotation
							End Site
							{
								OFFSET 0.000000 9.475479 0.000000
							}
						}
					}
				}
			}
		}
		JOINT Belly
		{
			OFFSET 0.212400 1.593002 3.163700
			CHANNELS 3 Xrotation Yrotation Zrotation
			End Site
			{
				OFFSET 0.000000 7.496635 0.000000
			}
		}
	}
	JOINT FitGrandmaFacialAnim_Joint
	{
		OFFSET 1.150000 -86.211197 -1.220100
		CHANNELS 3 Xrotation Yrotation Zrotation
		End Site
		{
			OFFSET 0.000000 31.666618 0.000000
		}
	}
}
MOTION
Frames: 4
Frame Time: 0.016667
0.933036 84.774734 12.169066 4.071150 36.473412 -2.800943 -0.000000 0.000001 -0.000000 -22.453549 6.091942 6.665142 22.534467 -35.924387 -5.333950 -8.838395 -6.636076 3.711260 0.000000 -0.000000 -0.000000 -0.000000 0.000000 -0.000000 0.000000 0.000001 0.000002 -11.627876 14.886949 -1.562975 24.946272 12.788728 1.165181 -16.877515 2.816699 -0.877369 0.000000 0.000003 -0.000000 -0.000000 -0.000000 0.000001 -0.000000 -0.000001 0.000000 7.112414 0.529797 -2.390076 1.179943 0.647727 1.438049 1.171144 0.823289 1.416788 -1.447713 25.849747 -8.284151 -8.495194 20.302433 -2.010673 -0.000000 -0.000000 0.000000 -0.000000 -0.000000 0.000000 -0.000000 -0.000000 0.000000 -0.000000 -0.000000 0.000000 -0.000000 -0.000000 0.000000 -0.000000 -0.000000 0.000000 -0.000000 -0.000000 0.000000 -0.000000 -0.000000 0.000000 -0.000000 -0.000000 0.000000 -0.000000 -0.000000 0.000000 -0.000000 -0.000000 0.000000 -0.000000 -0.000000 0.000000 -0.000000 -0.000000 0.000000 -0.000000 -0.000000 0.000000 -0.000000 -0.000000 0.000000 -0.000000 -0.000000 0.000000 -0.000000 -0.000000 0.000000 -0.000000 -0.000000 0.000000 -0.000000 -0.000000 0.000000 -0.063460 -2.703529 -0.486097 -58.743807 21.372231 -22.798881 10.391392 -75.898353 11.787412 -50.033898 13.093992 4.982044 17.538852 -5.734688 -12.929160 10.855085 26.140259 8.645418 0.000001 -0.000000 -0.000000 13.990900 1.412543 -54.992022 0.369625 1.160659 -65.362574 0.000002 0.000001 0.000003 7.444395 1.211138 -63.725549 1.805180 1.477033 -64.469459 -0.000001 -0.000001 -0.000004 8.572790 2.194720 -75.055719 -0.208461 1.006780 -57.746422 0.000003 0.000001 0.000001 10.012741 13.637263 -84.737642 0.876228 0.062042 -64.553921 0.000000 0.000000 -0.000000 0.000001 -0.000001 -0.000003 4.836702 8.975273 6.727819 10.740043 17.144880 61.498409 10.869375 22.267141 -5.100404 -0.365997 5.346427 5.429080 15.788512 -2.734472 -17.205882 -1.822820 -31.650837 7.412911 -0.000002 -0.000001 -0.000000 2.375253 -3.654529 13.539323 -2.144072 -2.475457 24.342711 -0.000001 -0.000000 0.000001 -1.975830 -5.709680 18.810585 0.284020 -5.102731 32.657573 -0.000000 0.000000 -0.000003 -3.263402 -8.564376 16.917260 4.034740 -4.065633 38.932334 0.000000 -0.000003 0.000006 -6.473127 -11.350206 28.409164 10.721031 -2.560806 40.492401 -0.000003 0.000001 -0.000006 0.000000 -0.000000 0.000001 -0.000000 -0.000001 -0.000000 -0.000000 -0.000001 -0.000000 -0.000000 -0.000001 -0.000000 -0.000000 -0.000001 -0.000000 -0.000000 -0.000001 -0.000000 -0.000000 -0.000001 0.000000 -0.000000 0.000002 -0.000001 -0.000000 0.000002 -0.000001 0.000001 -0.000002 0.000001 -0.000000 0.000001 -0.000000 
0.432303 84.822205 12.400961 4.329240 39.293498 -3.250238 0.000000 -0.000000 0.000000 -23.034386 6.420213 7.366201 21.600029 -39.342217 -5.603255 -9.016107 -4.653320 3.186903 -0.000000 -0.000000 -0.000000 0.000001 -0.000001 0.000000 0.000001 0.000005 0.000003 -11.168927 14.015967 -0.792882 24.647105 11.680761 1.066509 -16.923389 1.745985 -1.355893 0.000000 0.000002 -0.000000 -0.000001 0.000001 -0.000000 -0.000001 -0.000002 0.000000 7.213813 0.400569 -2.586209 1.139004 0.472319 1.508124 1.129821 0.657998 1.495977 -1.497330 24.861769 -8.282022 -9.017806 19.238486 -1.161759 0.000000 -0.000000 -0.000000 0.000000 -0.000000 -0.000000 0.000000 -0.000000 -0.000000 0.000000 -0.000000 -0.000000 0.000000 -0.000000 -0.000000 0.000000 -0.000000 -0.000000 0.000000 -0.000000 -0.000000 0.000000 -0.000000 -0.000000 0.000000 -0.000000 -0.000000 0.000000 -0.000000 -0.000000 0.000000 -0.000000 -0.000000 0.000000 -0.000000 -0.000000 0.000000 -0.000000 -0.000000 0.000000 -0.000000 -0.000000 0.000000 -0.000000 -0.000000 0.000000 -0.000000 -0.000000 0.000000 -0.000000 -0.000000 0.000000 -0.000000 -0.000000 0.000000 -0.000000 -0.000000 -0.098275 -4.304838 -0.130150 -58.723453 20.289171 -23.609853 9.881763 -75.007054 11.444832 -50.003350 13.081708 4.645810 17.538841 -5.734772 -12.929151 10.856112 26.143014 8.645537 -0.000002 -0.000000 -0.000000 13.990639 1.416719 -54.990133 0.369568 1.160614 -65.359398 -0.000002 -0.000001 0.000000 7.443682 1.211632 -63.724572 1.805142 1.477047 -64.467970 -0.000000 0.000001 -0.000003 8.572815 2.194747 -75.057598 -0.208449 1.006838 -57.748150 -0.000001 -0.000000 0.000000 10.014130 13.637247 -84.738612 0.876253 0.062044 -64.556086 -0.000002 0.000000 -0.000002 0.000002 -0.000004 0.000001 4.845229 8.887813 6.669462 9.629285 15.060104 62.090265 10.941259 22.517802 -5.122147 -0.392312 5.635245 5.539858 15.788510 -2.734472 -17.205882 -1.914308 -31.520138 7.399895 0.000000 -0.000001 -0.000002 2.374030 -3.654703 14.015425 -2.143502 -2.475490 24.691631 0.000001 -0.000000 0.000003 -1.975736 -5.709853 19.281544 0.284160 -5.104042 33.006503 -0.000001 0.000000 0.000000 -3.264530 -8.564559 17.388007 4.034673 -4.065558 39.281183 0.000001 -0.000001 0.000001 -6.473065 -11.350433 28.880048 10.721156 -2.560938 40.841297 -0.000001 -0.000000 0.000005 -0.000000 -0.000000 0.000001 0.000001 -0.000002 0.000000 0.000001 -0.000002 0.000000 0.000001 -0.000002 0.000000 0.000001 -0.000002 0.000000 0.000001 -0.000002 0.000000 0.000001 -0.000002 0.000000 -0.000000 0.000001 -0.000000 -0.000000 0.000001 -0.000000 -0.000000 0.000001 -0.000000 0.000000 -0.000000 0.000000 
-0.073421 84.839767 12.547320 4.730985 41.589015 -3.859366 0.000000 -0.000003 0.000000 -23.624084 7.182260 8.337424 21.378917 -38.161612 -5.287033 -9.202281 -4.854942 2.077313 0.000000 -0.000000 0.000000 -0.000000 0.000001 -0.000000 0.000002 -0.000002 -0.000001 -11.069723 13.323861 0.034145 24.361562 10.339560 0.947291 -16.820633 1.228147 -1.599742 -0.000000 0.000001 -0.000000 -0.000002 0.000001 0.000000 0.000000 0.000001 0.000001 7.288439 0.351458 -2.723025 1.074962 0.409439 1.547330 1.065677 0.600856 1.538322 -1.669404 23.934926 -8.054804 -9.247520 18.341332 -0.647392 -0.000000 0.000000 0.000000 -0.000000 0.000000 0.000000 -0.000000 0.000000 0.000000 -0.000000 0.000000 0.000000 -0.000000 0.000000 0.000000 -0.000000 0.000000 0.000000 -0.000000 0.000000 0.000000 -0.000000 0.000000 0.000000 -0.000000 0.000000 0.000000 -0.000000 0.000000 0.000000 -0.000000 0.000000 0.000000 -0.000000 0.000000 0.000000 -0.000000 0.000000 0.000000 -0.000000 0.000000 0.000000 -0.000000 0.000000 0.000000 -0.000000 0.000000 0.000000 -0.000000 0.000000 0.000000 -0.000000 0.000000 0.000000 -0.000000 0.000000 0.000000 -0.137371 -5.857306 0.179677 -58.765124 19.401612 -24.164863 9.711097 -74.412964 11.444946 -50.015959 13.301372 4.477788 17.538763 -5.734864 -12.929143 10.857149 26.145792 8.645669 -0.000000 -0.000000 0.000000 13.990324 1.420887 -54.988272 0.369531 1.160587 -65.356250 -0.000001 -0.000000 -0.000005 7.442981 1.212089 -63.723616 1.805112 1.477043 -64.466426 0.000004 0.000000 -0.000003 8.572842 2.194781 -75.059435 -0.208417 1.006870 -57.749905 0.000001 -0.000002 -0.000005 10.015496 13.637247 -84.739589 0.876288 0.062067 -64.557719 -0.000004 -0.000001 -0.000002 -0.000001 -0.000002 -0.000000 4.849105 8.873606 6.578577 8.499942 12.815116 62.567347 10.948455 22.781413 -5.092087 -0.404714 5.981675 5.562204 15.788515 -2.734472 -17.205882 -1.995434 -31.404158 7.388568 -0.000000 0.000002 0.000001 2.372862 -3.654837 14.485515 -2.142874 -2.475699 25.045074 -0.000002 0.000000 0.000001 -1.975674 -5.710045 19.743917 0.284328 -5.105395 33.359798 -0.000000 0.000000 -0.000000 -3.265561 -8.564772 17.850232 4.034661 -4.066049 39.634515 -0.000000 -0.000001 -0.000001 -6.472929 -11.350367 29.342527 10.721306 -2.561080 41.194715 -0.000002 0.000001 0.000000 -0.000001 -0.000000 -0.000001 -0.000001 0.000000 0.000001 -0.000001 0.000000 0.000001 -0.000001 0.000000 0.000001 -0.000001 0.000000 0.000001 -0.000001 0.000000 0.000001 -0.000001 0.000000 0.000000 -0.000001 0.000002 -0.000001 -0.000001 0.000002 -0.000001 -0.000000 0.000000 -0.000000 0.000000 -0.000003 0.000000 
-0.573063 84.841553 12.635656 5.167704 43.571477 -4.511454 0.000000 0.000001 -0.000000 -24.124573 7.512759 9.435850 21.060142 -35.900827 -5.085763 -9.336563 -4.731191 0.843961 0.000000 0.000000 -0.000000 0.000000 -0.000001 0.000000 -0.000002 -0.000000 0.000001 -11.130929 12.649690 0.810101 24.103567 9.272839 0.852928 -16.646520 0.757607 -1.828616 0.000000 0.000001 -0.000000 0.000001 0.000001 0.000001 -0.000001 -0.000000 -0.000000 7.372806 0.344618 -2.845162 1.021572 0.402662 1.586733 1.011855 0.599504 1.577680 -1.918164 23.066288 -7.797574 -9.375051 17.512233 -0.237608 0.000000 0.000000 0.000000 0.000000 0.000000 0.000000 0.000000 0.000000 0.000000 0.000000 0.000000 0.000000 0.000000 0.000000 0.000000 0.000000 0.000000 0.000000 0.000000 0.000000 0.000000 0.000000 0.000000 0.000000 0.000000 0.000000 0.000000 0.000000 0.000000 0.000000 0.000000 0.000000 0.000000 0.000000 0.000000 0.000000 0.000000 0.000000 0.000000 0.000000 0.000000 0.000000 0.000000 0.000000 0.000000 0.000000 0.000000 0.000000 0.000000 0.000000 0.000000 0.000000 0.000000 0.000000 0.000000 0.000000 0.000000 -0.156235 -7.215455 0.446556 -58.915026 18.233880 -24.765120 9.439895 -73.554437 11.301825 -49.997497 13.434679 4.113530 17.538778 -5.734936 -12.929130 10.858167 26.148573 8.645789 0.000001 -0.000000 0.000000 13.990055 1.425073 -54.986390 0.369489 1.160535 -65.353046 0.000000 -0.000001 0.000000 7.442272 1.212585 -63.722639 1.805071 1.477089 -64.464937 0.000001 0.000001 0.000002 8.572885 2.194811 -75.061320 -0.208420 1.006942 -57.751640 -0.000000 -0.000003 -0.000000 10.016882 13.637227 -84.740566 0.876307 0.062063 -64.559023 -0.000001 -0.000000 0.000000 -0.000000 -0.000000 -0.000001 4.849873 8.905624 6.467971 7.348087 10.428513 62.949612 10.867233 23.018800 -5.002932 -0.408416 6.356064 5.557292 15.788510 -2.734472 -17.205882 -2.064805 -31.304772 7.379067 0.000000 0.000001 -0.000002 2.372189 -3.658616 14.937735 -2.142235 -2.475750 25.392323 -0.000000 -0.000000 0.000003 -1.975998 -5.710179 20.185572 0.284479 -5.106725 33.706997 0.000000 0.000000 -0.000003 -3.266483 -8.564923 18.291808 4.034689 -4.065976 39.981762 0.000001 -0.000002 0.000001 -6.472830 -11.350839 29.784167 10.721314 -2.561097 41.541941 -0.000002 -0.000001 0.000002 -0.000000 -0.000000 -0.000001 0.000000 -0.000001 -0.000001 0.000000 -0.000001 -0.000001 0.000000 -0.000001 -0.000001 0.000000 -0.000001 -0.000001 0.000000 -0.000001 -0.000001 0.000000 -0.000001 -0.000000 -0.000001 0.000003 -0.000001 -0.000001 0.000003 -0.000001 -0.000000 0.000000 -0.000000 0.000000 0.000001 -0.000000 
